<?xml version="1.0" encoding="utf-8"?>
<!-- Generator: Adobe Illustrator 16.0.0, SVG Export Plug-In . SVG Version: 6.00 Build 0)  -->
<!DOCTYPE svg PUBLIC "-//W3C//DTD SVG 1.1//EN" "http://www.w3.org/Graphics/SVG/1.1/DTD/svg11.dtd">
<svg version="1.1" id="Layer_1" xmlns="http://www.w3.org/2000/svg" xmlns:xlink="http://www.w3.org/1999/xlink" x="0px" y="0px"
	 width="576px" height="576px" viewBox="0 0 576 576" enable-background="new 0 0 576 576" xml:space="preserve">
<g>
	<g>
		<path fill="#FBF4A4" d="M481.677,286.892c0,108.388-87.867,196.255-196.253,196.255c-108.389,0-196.258-87.867-196.258-196.255
			c0-108.387,87.869-196.255,196.258-196.255C393.81,90.637,481.677,178.505,481.677,286.892z"/>
		<path fill="#020202" d="M446.826,286.892c0,89.142-72.263,161.406-161.402,161.406c-89.146,0-161.404-72.264-161.404-161.406
			c0-89.141,72.259-161.404,161.404-161.404C374.563,125.488,446.826,197.751,446.826,286.892z"/>
		<path fill="#02A2B3" d="M411.381,286.892c0,69.567-56.392,125.961-125.957,125.961c-69.568,0-125.962-56.395-125.962-125.961
			c0-69.563,56.394-125.957,125.962-125.957C354.989,160.935,411.381,217.329,411.381,286.892z"/>
		<path fill="#E12728" d="M377.04,286.892c0,50.602-41.017,91.623-91.616,91.623c-50.604,0-91.62-41.021-91.62-91.623
			c0-50.597,41.016-91.616,91.62-91.616C336.023,195.276,377.04,236.295,377.04,286.892z"/>
		<path fill="#FAF4A4" d="M320.974,286.892c0,19.635-15.915,35.552-35.55,35.552c-19.64,0-35.558-15.917-35.558-35.552
			c0-19.633,15.918-35.552,35.558-35.552C305.059,251.34,320.974,267.259,320.974,286.892z"/>
	</g>
	<rect x="40.206" y="225.33" fill="#020202" width="496.667" height="119.331"/>
	<g>
		<path fill="#E12728" d="M60.992,296.732v-51.146h18.995c9.089,0,15.193,3.527,15.193,13.295c0,4.612-1.49,8.344-5.63,10.446v0.137
			c7.325,0.949,10.445,5.9,10.445,13.023c0,10.718-9.156,14.244-18.518,14.244H60.992z M74.289,265.666h1.49
			c3.529,0,7.192-0.611,7.192-4.952c0-4.681-4.14-4.952-7.734-4.952h-0.948V265.666z M74.289,286.56h1.694
			c3.936,0,10.583,0.203,10.583-5.428c0-6.173-6.579-5.562-10.92-5.562h-1.357V286.56z"/>
		<path fill="#E12728" d="M167.515,245.587v28.761c0,6.581-0.27,13.092-5.358,18.044c-4.272,4.206-10.987,5.697-16.96,5.697
			c-5.967,0-12.682-1.491-16.956-5.697c-5.088-4.953-5.36-11.464-5.36-18.044v-28.761h13.297v26.931
			c0,6.646,0.474,13.905,9.02,13.905c8.548,0,9.025-7.259,9.025-13.905v-26.931H167.515z"/>
		<path fill="#E12728" d="M208.56,285.474h15.943v11.259h-29.236v-51.146h13.293V285.474z"/>
		<path fill="#E12728" d="M263.479,285.474h15.943v11.259h-29.238v-51.146h13.295V285.474z"/>
		<path fill="#E12728" d="M332.188,258.747c-2.44-2.035-5.562-3.392-8.819-3.392c-2.441,0-5.697,1.425-5.697,4.274
			c0,2.985,3.598,4.139,5.902,4.884l3.39,1.017c7.125,2.104,12.619,5.698,12.619,13.974c0,5.088-1.221,10.311-5.29,13.771
			c-4.003,3.392-9.362,4.815-14.518,4.815c-6.446,0-12.752-2.17-17.977-5.833l5.698-10.717c3.322,2.915,7.257,5.291,11.804,5.291
			c3.12,0,6.442-1.56,6.442-5.157c0-3.73-5.221-5.019-8.071-5.833c-8.343-2.374-13.838-4.545-13.838-14.449
			c0-10.378,7.395-17.162,17.637-17.162c5.155,0,11.465,1.628,16.008,4.206L332.188,258.747z"/>
		<path fill="#E12728" d="M379.524,256.847v8.547h14.991v11.261h-14.991v8.818h15.807v11.259h-29.102v-51.146h29.102v11.26H379.524z
			"/>
		<path fill="#E12728" d="M417.247,245.587h15.944l9.562,13.906l9.566-13.906h15.939l-18.858,26.591v24.555h-13.294v-24.555
			L417.247,245.587z"/>
		<path fill="#E12728" d="M500.817,256.847v8.547h14.992v11.261h-14.992v8.818h15.809v11.259h-29.102v-51.146h29.102v11.26H500.817z
			"/>
	</g>
	<g>
		<path fill="#FBF4A4" d="M153.839,319.714c0,0.893-0.146,1.776-0.439,2.654c-0.294,0.878-0.703,1.652-1.229,2.324
			c-0.545,0.695-1.193,1.26-1.943,1.691c-0.751,0.432-1.61,0.646-2.575,0.646c-0.894,0-1.617-0.173-2.169-0.521
			c-0.552-0.347-0.931-0.846-1.132-1.498c-0.655,0.717-1.296,1.23-1.928,1.538c-0.627,0.309-1.319,0.464-2.069,0.464
			c-0.709,0-1.27-0.221-1.682-0.662c-0.409-0.442-0.614-0.995-0.614-1.663c0-0.246,0.024-0.478,0.076-0.695
			c0.047-0.216,0.104-0.454,0.173-0.712l0.625-2.177c0.041-0.171,0.092-0.406,0.149-0.703c0.059-0.297,0.089-0.517,0.089-0.656
			c0-0.324-0.071-0.56-0.208-0.705c-0.136-0.143-0.406-0.215-0.802-0.215c-0.197,0-0.396,0.031-0.599,0.091
			c-0.206,0.062-0.384,0.12-0.528,0.176l0.199-0.825c0.495-0.202,0.969-0.374,1.423-0.52c0.453-0.142,0.88-0.214,1.281-0.214
			c0.731,0,1.29,0.183,1.686,0.546c0.392,0.366,0.59,0.826,0.59,1.384c0,0.201-0.03,0.491-0.092,0.868s-0.13,0.682-0.202,0.914
			l-0.534,1.783c-0.062,0.19-0.116,0.428-0.16,0.713c-0.049,0.285-0.071,0.487-0.071,0.61c0,0.349,0.098,0.623,0.289,0.822
			c0.195,0.198,0.419,0.298,0.675,0.298c0.078,0,0.197-0.01,0.349-0.032c0.153-0.021,0.314-0.07,0.478-0.15
			c0.174-0.08,0.382-0.206,0.63-0.381c0.25-0.176,0.487-0.394,0.72-0.658c0-0.109,0.015-0.271,0.042-0.481
			c0.026-0.211,0.07-0.464,0.126-0.757l1.21-5.314l2.916-0.128l0.109,0.128l-1.208,5.254c-0.017,0.073-0.044,0.229-0.075,0.463
			c-0.033,0.235-0.051,0.478-0.051,0.73c0,0.523,0.126,0.912,0.379,1.162c0.257,0.253,0.631,0.376,1.125,0.376
			c0.833,0,1.549-0.31,2.152-0.929c0.604-0.622,0.904-1.451,0.904-2.491c0-0.103-0.007-0.216-0.018-0.338
			c-0.013-0.122-0.037-0.261-0.074-0.412c-0.068-0.141-0.191-0.286-0.376-0.433c-0.184-0.146-0.354-0.296-0.514-0.448
			c-0.18-0.178-0.331-0.393-0.469-0.646c-0.132-0.255-0.2-0.563-0.2-0.931c0-0.307,0.062-0.562,0.18-0.771
			c0.116-0.207,0.272-0.379,0.461-0.514c0.14-0.104,0.317-0.186,0.531-0.246c0.215-0.062,0.402-0.092,0.569-0.092
			c0.588,0,1.037,0.207,1.352,0.623C153.683,318.47,153.839,319.023,153.839,319.714z"/>
		<path fill="#FBF4A4" d="M162.665,325.426l-0.201,0.825c-0.607,0.238-1.088,0.42-1.45,0.545c-0.361,0.125-0.776,0.188-1.255,0.188
			c-0.731,0-1.302-0.178-1.711-0.536c-0.406-0.358-0.607-0.811-0.607-1.362c0-0.213,0.014-0.433,0.045-0.654
			c0.03-0.224,0.078-0.477,0.146-0.757l0.757-2.678c0.068-0.257,0.126-0.5,0.17-0.728c0.045-0.229,0.068-0.439,0.068-0.63
			c0-0.34-0.071-0.579-0.211-0.714c-0.141-0.135-0.409-0.201-0.81-0.201c-0.197,0-0.395,0.029-0.603,0.091
			c-0.204,0.062-0.378,0.12-0.528,0.173l0.205-0.823c0.493-0.203,0.968-0.375,1.422-0.519c0.453-0.144,0.88-0.215,1.286-0.215
			c0.726,0,1.288,0.176,1.68,0.527c0.396,0.351,0.594,0.808,0.594,1.371c0,0.115-0.013,0.318-0.041,0.613
			c-0.026,0.293-0.077,0.562-0.149,0.807l-0.754,2.668c-0.062,0.214-0.119,0.458-0.168,0.734c-0.047,0.273-0.074,0.482-0.074,0.623
			c0,0.354,0.082,0.596,0.238,0.723c0.161,0.129,0.434,0.193,0.826,0.193c0.184,0,0.389-0.033,0.62-0.096
			C162.392,325.531,162.563,325.476,162.665,325.426z M162.856,314.23c0,0.465-0.175,0.861-0.526,1.188
			c-0.351,0.328-0.774,0.49-1.268,0.49c-0.498,0-0.921-0.162-1.276-0.49c-0.354-0.327-0.531-0.724-0.531-1.188
			c0-0.463,0.178-0.86,0.531-1.19c0.355-0.33,0.778-0.495,1.276-0.495c0.493,0,0.917,0.165,1.268,0.495
			C162.682,313.37,162.856,313.768,162.856,314.23z"/>
		<path fill="#FBF4A4" d="M168.613,326.976c-0.733,0-1.32-0.18-1.761-0.536c-0.44-0.358-0.661-0.812-0.661-1.362
			c0-0.226,0.018-0.44,0.048-0.642c0.031-0.202,0.078-0.462,0.147-0.779l1.135-4.878h-1.678l0.222-0.943h1.712l0.661-2.779h2.971
			l-0.645,2.779h2.486l-0.219,0.943h-2.476l-1.119,4.878c-0.04,0.172-0.082,0.379-0.122,0.623c-0.041,0.245-0.058,0.403-0.058,0.477
			c0,0.349,0.095,0.59,0.286,0.725c0.194,0.135,0.487,0.201,0.887,0.201c0.188,0,0.45-0.037,0.78-0.108
			c0.335-0.075,0.566-0.135,0.704-0.186l-0.201,0.827c-0.54,0.239-1.078,0.424-1.621,0.559
			C169.554,326.907,169.06,326.976,168.613,326.976z"/>
		<path fill="#FBF4A4" d="M186.995,325.354l-0.201,0.805c-0.607,0.239-1.089,0.422-1.45,0.546c-0.36,0.125-0.778,0.188-1.255,0.188
			c-0.726,0-1.292-0.182-1.697-0.546c-0.407-0.362-0.61-0.813-0.61-1.352c0-0.171,0.006-0.36,0.022-0.569
			c0.014-0.207,0.068-0.492,0.161-0.853l0.654-2.438c0.065-0.262,0.116-0.499,0.149-0.71c0.035-0.212,0.052-0.384,0.052-0.519
			c0-0.293-0.07-0.522-0.212-0.688c-0.14-0.165-0.378-0.247-0.713-0.247c-0.208,0-0.505,0.081-0.889,0.242
			c-0.383,0.162-0.813,0.463-1.29,0.903l-1.521,6.619h-3.029l2.698-11.671c0.023-0.105,0.04-0.202,0.054-0.292
			c0.014-0.094,0.018-0.169,0.018-0.229c0-0.22-0.033-0.395-0.108-0.524c-0.075-0.127-0.185-0.231-0.331-0.311
			c-0.146-0.08-0.313-0.134-0.505-0.166c-0.19-0.03-0.409-0.058-0.661-0.082l0.166-0.678l4.826-0.238l0.103,0.146l-1.468,6.344
			h0.065c0.566-0.501,1.157-0.894,1.771-1.178c0.609-0.285,1.268-0.426,1.972-0.426c0.677,0,1.211,0.185,1.592,0.558
			c0.383,0.374,0.573,0.826,0.573,1.358c0,0.14-0.01,0.337-0.035,0.592c-0.02,0.252-0.07,0.523-0.148,0.811l-0.697,2.577
			c-0.061,0.214-0.115,0.457-0.167,0.732c-0.047,0.275-0.07,0.481-0.07,0.623c0,0.355,0.078,0.6,0.23,0.734
			c0.158,0.134,0.431,0.201,0.823,0.201c0.184,0,0.392-0.033,0.623-0.096C186.722,325.458,186.89,325.401,186.995,325.354z"/>
		<path fill="#FBF4A4" d="M213.025,312.573v9.562c0,2.986-1.561,4.978-4.694,4.978c-1.581,0-2.801-0.788-3.646-2.085l2.124-2.235
			c0.412,0.562,0.993,1.203,1.484,1.203c1.087,0,1.051-1.297,1.051-2.087v-9.335H213.025z"/>
		<path fill="#FBF4A4" d="M228.421,315.692v2.367h4.15v3.116h-4.15v2.443h4.376v3.117h-8.061v-14.163h8.061v3.119H228.421z"/>
		<path fill="#FBF4A4" d="M252.229,316.218c-0.676-0.562-1.539-0.939-2.443-0.939c-0.674,0-1.576,0.396-1.576,1.185
			c0,0.825,0.997,1.145,1.635,1.351l0.938,0.283c1.975,0.581,3.494,1.577,3.494,3.869c0,1.408-0.337,2.854-1.466,3.813
			c-1.108,0.938-2.592,1.333-4.017,1.333c-1.788,0-3.534-0.602-4.98-1.616l1.579-2.966c0.921,0.807,2.009,1.465,3.268,1.465
			c0.863,0,1.783-0.433,1.783-1.428c0-1.034-1.445-1.392-2.234-1.615c-2.312-0.659-3.833-1.259-3.833-4.001
			c0-2.874,2.05-4.753,4.884-4.753c1.43,0,3.176,0.45,4.435,1.165L252.229,316.218z"/>
		<path fill="#FBF4A4" d="M273.186,316.218c-0.676-0.562-1.542-0.939-2.441-0.939c-0.676,0-1.579,0.396-1.579,1.185
			c0,0.825,0.994,1.145,1.634,1.351l0.94,0.283c1.971,0.581,3.493,1.577,3.493,3.869c0,1.408-0.339,2.854-1.464,3.813
			c-1.108,0.938-2.593,1.333-4.021,1.333c-1.783,0-3.529-0.602-4.979-1.616l1.579-2.966c0.92,0.807,2.008,1.465,3.267,1.465
			c0.866,0,1.788-0.433,1.788-1.428c0-1.034-1.446-1.392-2.237-1.615c-2.311-0.659-3.83-1.259-3.83-4.001
			c0-2.874,2.047-4.753,4.883-4.753c1.426,0,3.175,0.45,4.434,1.165L273.186,316.218z"/>
		<path fill="#FBF4A4" d="M290.042,315.692v2.367h4.154v3.116h-4.154v2.443h4.381v3.117h-8.061v-14.163h8.061v3.119H290.042z"/>
		<path fill="#FBF4A4" d="M327.543,326.736h-3.684v-11.044h-3.042v-3.119h9.768v3.119h-3.042V326.736z"/>
		<path fill="#FBF4A4" d="M350.301,318.041v-5.468h3.684v14.163h-3.684v-5.804h-5.317v5.804h-3.68v-14.163h3.68v5.468H350.301z"/>
		<path fill="#FBF4A4" d="M380.718,319.392c0,4.583-3.284,7.814-7.83,7.814c-4.547,0-7.834-3.231-7.834-7.814
			c0-4.282,3.758-7.287,7.834-7.287C376.963,312.104,380.718,315.109,380.718,319.392z M368.888,319.411c0,2.442,1.8,4.227,4,4.227
			c2.196,0,4-1.784,4-4.227c0-1.953-1.804-3.737-4-3.737C370.688,315.674,368.888,317.458,368.888,319.411z"/>
		<path fill="#FBF4A4" d="M403.587,326.736h-4.583l-3.475-5.446h-0.038v5.446h-3.679v-14.163h5.504c2.796,0,4.921,1.334,4.921,4.358
			c0,1.953-1.091,3.645-3.101,4.001L403.587,326.736z M395.491,318.922h0.358c1.201,0,2.554-0.224,2.554-1.765
			c0-1.54-1.353-1.766-2.554-1.766h-0.358V318.922z"/>
		<path fill="#FBF4A4" d="M413.969,312.573h3.679l6.747,8.66h0.037v-8.66h3.68v14.163h-3.68l-6.745-8.677h-0.039v8.677h-3.679
			V312.573z"/>
	</g>
</g>
</svg>
